<?xml version="1.0" encoding="UTF-8" standalone="no"?>
<!-- Created with Inkscape (http://www.inkscape.org/) -->

<svg
   xmlns:dc="http://purl.org/dc/elements/1.1/"
   xmlns:cc="http://creativecommons.org/ns#"
   xmlns:rdf="http://www.w3.org/1999/02/22-rdf-syntax-ns#"
   xmlns:svg="http://www.w3.org/2000/svg"
   xmlns="http://www.w3.org/2000/svg"
   xmlns:xlink="http://www.w3.org/1999/xlink"
   xmlns:sodipodi="http://sodipodi.sourceforge.net/DTD/sodipodi-0.dtd"
   xmlns:inkscape="http://www.inkscape.org/namespaces/inkscape"
   width="900"
   height="300"
   viewBox="0 0 900.00001 300"
   id="svg2"
   version="1.1"
   inkscape:version="0.91 r13725"
   sodipodi:docname="logos.svg">
  <defs
     id="defs4">
    <clipPath
       clipPathUnits="userSpaceOnUse"
       id="clipPath4262">
      <ellipse
         style="fill:#00003d;fill-opacity:1;stroke:#000000;stroke-width:0.59490567;stroke-linecap:round;stroke-linejoin:round;stroke-miterlimit:4;stroke-dasharray:none;stroke-dashoffset:0;stroke-opacity:1"
         id="ellipse4264"
         cx="647.54358"
         cy="809.15613"
         rx="89.172073"
         ry="85.953468" />
    </clipPath>
  </defs>
  <sodipodi:namedview
     id="base"
     pagecolor="#ffffff"
     bordercolor="#666666"
     borderopacity="1.0"
     inkscape:pageopacity="0.0"
     inkscape:pageshadow="2"
     inkscape:zoom="1.2427734"
     inkscape:cx="480.68164"
     inkscape:cy="275.33152"
     inkscape:document-units="px"
     inkscape:current-layer="layer1"
     showgrid="false"
     units="px"
     borderlayer="true"
     inkscape:window-width="1627"
     inkscape:window-height="1026"
     inkscape:window-x="1419"
     inkscape:window-y="24"
     inkscape:window-maximized="1" />
  <metadata
     id="metadata7">
    <rdf:RDF>
      <cc:Work
         rdf:about="">
        <dc:format>image/svg+xml</dc:format>
        <dc:type
           rdf:resource="http://purl.org/dc/dcmitype/StillImage" />
        <dc:title></dc:title>
      </cc:Work>
    </rdf:RDF>
  </metadata>
  <g
     inkscape:label="Capa 1"
     inkscape:groupmode="layer"
     id="layer1"
     transform="translate(0,-752.36216)">
    <g
       id="g4266"
       transform="matrix(0.43051779,0,0,0.43051779,191.96484,480.57993)">
      <path
         transform="translate(-244.21185,-19.311645)"
         clip-path="url(#clipPath4262)"
         style="fill:#f2721f"
         d="m 510.64403,949.24831 c -4.79376,-1.65579 -8.38417,-5.25783 -9.75045,-9.78203 -0.45222,-1.49745 -0.65592,-6.73726 -0.65958,-16.96635 l -0.005,-14.79978 3.79513,-0.15455 3.79512,-0.15456 0.1691,14.95434 c 0.16124,14.25913 0.22357,15.05618 1.34069,17.14502 2.08415,3.89703 7.57657,5.33415 15.21389,3.98079 l 2.11425,-0.37465 0.26428,-17.6982 0.26429,-17.69819 3.69994,0 3.69995,0 0.13843,19.88334 c 0.11094,15.93482 1.6e-4,19.9981 -0.55785,20.4612 -1.18734,0.9854 -9.76364,2.20568 -15.37459,2.18758 -3.77156,-0.0122 -6.17374,-0.30228 -8.14731,-0.98396 z m 41.11964,0.66449 c -0.72677,-0.13669 -2.57014,-0.59919 -4.09637,-1.02779 l -2.77496,-0.77927 0,-30.12995 c 0,-24.57462 0.12955,-30.17967 0.7026,-30.39958 0.38644,-0.14828 2.11088,-0.31921 3.83209,-0.37983 l 3.12949,-0.11022 0.26428,10.57128 c 0.14535,5.8142 0.38321,10.55431 0.52856,10.5336 0.14536,-0.0207 1.85778,-0.46902 3.80539,-0.99622 11.11591,-3.00893 20.8723,2.53445 24.77074,14.07424 1.49134,4.41456 1.25414,11.8562 -0.52419,16.44536 -1.66179,4.28839 -5.92922,8.77337 -10.19598,10.71577 -3.09282,1.40797 -3.82776,1.51912 -10.72035,1.62137 -4.06994,0.0604 -7.99452,-0.002 -8.7213,-0.13876 z m 15.32835,-7.29025 c 6.21163,-3.1844 9.23955,-9.97104 7.92523,-17.76321 -0.88652,-5.25588 -3.17184,-8.82486 -6.8681,-10.72589 -2.60409,-1.33931 -3.3203,-1.4724 -6.87133,-1.27684 -2.70072,0.14874 -4.68301,0.58802 -6.21937,1.37822 l -2.25514,1.1599 0.14088,13.85463 0.14089,13.85464 1.58569,0.36834 c 2.93426,0.6816 10.43506,0.16844 12.42125,-0.84979 z m 33.40785,6.62576 c -4.79054,-1.65468 -8.37596,-5.24976 -9.75575,-9.78203 -0.45977,-1.51025 -0.65958,-6.64981 -0.65958,-16.96635 l 0,-14.79978 3.79513,-0.15455 3.79513,-0.15456 0.1691,14.95434 c 0.15683,13.86922 0.24803,15.10775 1.25685,17.06859 2.02302,3.9321 7.62275,5.41725 15.29773,4.05722 l 2.11425,-0.37465 0.26428,-17.6982 0.26428,-17.69819 3.69995,0 3.69995,0 0.13843,19.88334 c 0.11093,15.93482 1.6e-4,19.9981 -0.55785,20.4612 -1.18734,0.9854 -9.76364,2.20568 -15.37459,2.18758 -3.77156,-0.0122 -6.17374,-0.30228 -8.14731,-0.98396 z m 85.98533,0.30952 c -3.76419,-1.41999 -5.66583,-2.99109 -7.05359,-5.82758 l -1.3526,-2.76462 0.13784,-22.97186 0.13784,-22.97187 2.64282,-0.57797 c 1.45355,-0.31788 2.94013,-0.47246 3.30352,-0.34351 0.4783,0.16973 0.66071,1.9671 0.66071,6.5106 0,7.42077 -0.84369,6.7673 8.98558,6.95976 l 6.60705,0.12937 0,2.9071 0,2.9071 -7.66418,0.26428 -7.66417,0.26428 -0.14221,12.41963 c -0.15654,13.67212 0.0133,14.67409 2.77746,16.38242 1.42532,0.8809 2.63269,1.0618 7.0865,1.0618 5.27636,0 5.37733,0.0233 5.88396,1.35582 0.78471,2.06394 0.62178,3.30718 -0.51302,3.9145 -1.74416,0.93345 -11.64593,1.20597 -13.83351,0.38075 z m 32.48034,-0.28671 c -3.35995,-1.16111 -6.16231,-3.24474 -7.80544,-5.80355 -2.50691,-3.90394 -2.67728,-5.23819 -2.67728,-20.96764 l 0,-14.79978 3.83209,-0.1553 3.83209,-0.1553 0.0315,13.10511 c 0.0345,14.32893 0.34159,17.48674 1.90442,19.57998 2.10928,2.82515 3.67555,3.55263 8.01033,3.72053 2.23337,0.0865 5.13102,-0.0378 6.43922,-0.27634 l 2.37854,-0.43362 0.26428,-17.69253 0.26428,-17.69253 3.69995,0 3.69994,0 0.13843,19.88334 c 0.11094,15.93482 1.6e-4,19.9981 -0.55785,20.4612 -1.18733,0.9854 -9.76363,2.20568 -15.37459,2.18758 -3.72436,-0.012 -6.17797,-0.30388 -8.07992,-0.96115 z m -83.84334,-0.40945 c -0.20571,-0.20571 -0.37402,-9.10584 -0.37402,-19.77806 0,-14.88376 0.15392,-19.52946 0.6607,-19.94238 2.13502,-1.73957 14.42532,-3.12754 20.01475,-2.26031 4.29402,0.66624 6.34885,1.57706 8.8383,3.91764 4.21373,3.96177 4.93562,7.80384 4.73107,25.17975 l -0.15246,12.94981 -3.80175,0.15468 -3.80176,0.15469 -0.16247,-14.95447 c -0.14553,-13.39544 -0.26649,-15.16386 -1.1602,-16.96295 -1.51044,-3.04061 -3.98461,-4.07 -9.78236,-4.07 -2.60905,0 -5.35059,0.23073 -6.0923,0.51272 l -1.34858,0.51273 -0.13938,17.3263 -0.13939,17.3263 -3.45806,0.15379 c -1.90193,0.0846 -3.62637,-0.0145 -3.83209,-0.22024 z m 129.20168,-26.12188 c -3.15889,-0.64201 -6.43941,-2.67019 -8.97119,-5.54646 -6.87343,-7.80862 -4.13507,-20.39354 5.45794,-25.08358 3.78893,-1.85241 10.00017,-1.86476 13.7343,-0.0273 5.66854,2.78934 9.25823,8.50856 9.25823,14.75054 0,4.21347 -1.26009,7.5263 -4.03792,10.61592 -3.93784,4.37982 -9.88973,6.41921 -15.44136,5.2909 z m 10.38798,-4.83836 c 0.88243,-0.88243 0.79155,-2.01581 -0.25433,-3.17149 -0.83657,-0.9244 -0.82346,-1.02755 0.22383,-1.7611 1.21572,-0.85152 2.52489,-4.13276 1.99257,-4.99408 -0.76923,-1.24464 -2.38888,-0.48901 -3.46244,1.61534 -1.24913,2.4485 -4.00427,3.93859 -6.39738,3.45997 -1.65051,-0.33011 -3.229,0.82504 -2.76823,2.0258 0.37935,0.98858 4.07286,1.57333 5.41173,0.85679 1.44332,-0.77244 1.66002,-0.72243 1.66002,0.38308 0,1.1786 0.99177,2.21996 2.11425,2.21996 0.46514,0 1.13113,-0.28542 1.47998,-0.63427 z m -11.50324,-4.41051 c 0.56071,-0.67563 0.48079,-1.16616 -0.46385,-2.84693 -1.45243,-2.58426 -1.4881,-5.79605 -0.0842,-7.58086 1.27976,-1.62695 1.31492,-2.1552 0.20479,-3.07652 -0.73615,-0.61096 -1.06037,-0.47454 -2.37853,1.00074 -0.83941,0.93947 -1.52621,2.31503 -1.52621,3.05681 0,1.10815 -0.18854,1.28885 -1.05713,1.01317 -1.69027,-0.53647 -3.17138,0.19049 -3.17138,1.55659 0,1.82194 1.30901,2.70339 2.92275,1.96811 1.20874,-0.55073 1.30576,-0.49149 1.30576,0.79739 0,1.36162 2.26771,4.92777 3.13357,4.92777 0.24031,0 0.74179,-0.36732 1.11439,-0.81627 z m 13.53571,-7.91452 c 0.38816,-1.01152 -0.66511,-3.60581 -1.92793,-4.74864 -0.89859,-0.81321 -0.90552,-0.96822 -0.1057,-2.36185 0.71794,-1.25092 0.74252,-1.62825 0.15244,-2.33926 -1.31919,-1.58953 -3.74551,-0.68857 -3.74551,1.39081 0,0.79524 -0.18422,0.87143 -1.02238,0.42285 -1.45198,-0.77707 -4.41169,-0.67738 -5.59583,0.18849 -1.54805,1.13197 -0.16522,2.43522 2.58656,2.43771 2.64339,0.003 5.40085,1.56806 6.27806,3.56462 1.00728,2.29259 2.76651,3.04477 3.38029,1.44527 z m -139.8819,-11.36413 c -25.56242,-3.57469 -46.62155,-16.57332 -60.35576,-37.25424 -14.17631,-21.34662 -17.82449,-48.16353 -9.8871,-72.67751 9.32275,-28.79254 33.33775,-50.1485 63.70024,-56.64709 4.99822,-1.06978 7.16611,-1.22675 16.58534,-1.20084 9.17141,0.0252 11.68792,0.21274 16.38547,1.22098 33.7288,7.23917 58.94973,32.30104 66.145,65.72786 1.35777,6.30772 1.9004,20.93833 1.02492,27.63427 -2.53502,19.38864 -11.23315,36.50445 -25.5464,50.26914 -11.59048,11.14626 -26.11836,18.71802 -42.07214,21.92749 -5.89833,1.18659 -20.59877,1.7524 -25.97957,0.99994 z m 43.74035,-24.24311 c 3.89633,-1.99806 5.94465,-5.48096 5.94465,-10.10811 0,-5.92349 -5.13027,-11.07899 -11.03852,-11.09281 -4.16165,-0.01 -8.91242,3.2469 -10.39332,7.12458 -3.71595,9.73008 6.26762,18.80417 15.48719,14.07634 z m -23.48832,-11.79437 c 2.42858,-0.65668 2.60293,-0.83125 3.80749,-3.81211 1.5238,-3.77087 4.32677,-6.77005 8.01267,-8.57356 2.44396,-1.19581 3.26742,-1.32129 7.69347,-1.1723 l 4.95657,0.16685 1.69547,-1.84128 c 4.56614,-4.95881 8.78512,-12.75848 10.63442,-19.65995 1.5689,-5.85503 1.89955,-8.89976 1.02653,-9.4527 -1.19198,-0.75496 -14.51546,-0.59425 -15.1281,0.18249 -0.28662,0.36338 -0.67494,1.66912 -0.86294,2.90163 -0.82021,5.37727 -4.55275,12.31556 -9.03846,16.80128 -8.28421,8.2842 -20.70772,11.42477 -32.42609,8.19704 -2.52153,-0.69453 -4.59376,-1.01327 -4.85636,-0.74698 -0.96052,0.97397 -6.86653,11.82946 -6.86653,12.62094 0,1.32864 8.04259,4.21608 14.5355,5.21853 2.83452,0.43762 14.20381,-0.12345 16.81636,-0.82988 z m -33.33398,-13.87633 c 1.9623,-3.31353 3.56781,-6.24649 3.56781,-6.51769 0,-0.27121 -1.75308,-2.27485 -3.89573,-4.45254 -6.28603,-6.38882 -9.31837,-13.77723 -9.31837,-22.70456 0,-6.09111 0.71595,-9.30791 3.25531,-14.6264 1.55838,-3.26392 3.12006,-5.46905 6.03086,-8.51576 2.16036,-2.26122 3.92793,-4.28186 3.92793,-4.4903 0,-0.68872 -7.5273,-12.98191 -7.94901,-12.98191 -1.81015,0 -11.11522,9.54477 -14.10802,14.47144 -2.46815,4.06301 -5.41352,10.80424 -5.42183,12.40925 -0.004,0.68494 0.7326,2.17847 1.63589,3.31897 4.69911,5.93311 4.79396,14.51253 0.21953,19.85672 -2.14285,2.50344 -2.22414,3.16725 -0.86993,7.10332 1.93248,5.61687 5.30393,11.1543 9.90585,16.26985 3.15907,3.51167 7.39186,6.91699 8.57439,6.89817 0.551,-0.009 2.20508,-2.25567 4.44532,-6.03856 z M 592.16523,821.2333 c 4.69754,-1.18286 8.27004,-5.71314 8.30739,-10.5346 0.0291,-3.7532 -0.8984,-5.97707 -3.48839,-8.36444 -4.74203,-4.37105 -10.92437,-4.26854 -15.45584,0.25628 -5.92449,5.91578 -3.58776,15.59237 4.45871,18.46387 2.46144,0.8784 3.30328,0.90278 6.17813,0.17889 z m 102.23003,-14.0426 c 1.17474,-0.3145 1.22111,-0.48967 0.87111,-3.29094 -1.11224,-8.90212 -5.45942,-18.44001 -11.83294,-25.96201 l -1.56752,-1.84997 -5.45556,0 c -4.77139,0 -5.77881,-0.16509 -8.03324,-1.31643 -3.19511,-1.63174 -6.33032,-5.1216 -7.52263,-8.37358 -0.49747,-1.35683 -1.23042,-2.73632 -1.62878,-3.06555 -1.35084,-1.11638 -9.05002,-1.94247 -15.16353,-1.62699 -8.10625,0.41833 -18.29957,3.40685 -18.29957,5.36515 0,1.18967 6.87322,12.98226 7.56227,12.97481 0.34675,-0.004 2.17651,-0.51286 4.06613,-1.13134 4.60919,-1.50864 13.63206,-1.63156 18.23545,-0.24845 11.42472,3.43262 20.06194,12.3921 22.99245,23.8503 0.56511,2.20953 1.16712,4.24329 1.33781,4.51948 0.34239,0.554 12.46248,0.68455 14.43855,0.15552 z m -13.79248,-36.59152 c 3.89633,-1.99805 5.94465,-5.48096 5.94465,-10.10811 0,-5.95347 -5.14102,-11.08986 -11.09984,-11.08986 -4.21303,0 -8.82673,3.18012 -10.332,7.12163 -3.71595,9.73008 6.26762,18.80417 15.48719,14.07634 z"
         id="path4247"
         inkscape:connector-curvature="0" />
      <path
         style="fill:#2e2a2c"
         d="m 293.16168,932.43602 c -5.08291,-1.09115 -9.45878,-4.60178 -11.12838,-8.92796 -0.83086,-2.15289 -0.946,-4.31688 -0.946,-17.77958 l 0,-15.32835 3.43566,0 3.43567,0 0.26428,15.06406 c 0.24519,13.97578 0.34272,15.19759 1.34999,16.91225 0.59713,1.01649 1.88104,2.38415 2.85312,3.03924 1.55274,1.04639 2.43628,1.19106 7.27393,1.19106 3.02857,0 5.96657,-0.24622 6.52888,-0.54716 0.97797,-0.5234 1.02237,-1.27905 1.02237,-17.39937 0,-9.26872 0.14438,-17.22845 0.32084,-17.68829 0.46311,-1.20686 6.82367,-1.20686 7.28679,0 0.17646,0.45984 0.32083,9.37387 0.32083,19.80895 l 0,18.97288 -1.18927,0.76449 c -2.5659,1.64942 -16.22174,2.90676 -20.82871,1.91778 z m 38.23344,-0.32847 c -6.93535,-1.25326 -6.17275,2.62607 -6.17275,-31.40043 0,-33.44117 -0.44678,-30.38482 4.49279,-30.7341 l 2.64282,-0.18688 0.14397,10.29239 c 0.0792,5.66082 0.32939,10.47781 0.55602,10.70444 0.22662,0.22663 2.40789,-0.0927 4.84726,-0.70952 5.56473,-1.4072 8.99901,-1.12641 13.53493,1.10661 15.04217,7.40524 15.73975,31.91378 1.1132,39.11122 -5.46219,2.68784 -12.83353,3.32061 -21.15824,1.81627 z m 16.53279,-6.98147 c 5.48275,-2.73228 8.3468,-8.51964 7.79923,-15.75983 -0.47346,-6.26013 -3.01395,-10.70132 -7.41661,-12.96541 -2.56869,-1.32097 -8.84109,-1.42515 -11.78353,-0.19572 -4.07971,1.70461 -3.90474,0.99136 -3.90474,15.91685 0,9.67972 0.17155,13.47128 0.6221,13.74974 0.98438,0.60837 6.80939,1.18003 9.42062,0.92452 1.30819,-0.12801 3.67651,-0.87958 5.26293,-1.67015 z m 35.08961,7.30942 c -5.08175,-1.08969 -9.45867,-4.60096 -11.12838,-8.92744 -0.83087,-2.15289 -0.946,-4.31688 -0.946,-17.77958 l 0,-15.32835 3.43566,0 3.43567,0 0.26428,15.06406 c 0.24519,13.97578 0.34271,15.19759 1.34999,16.91225 1.99932,3.40341 3.91366,4.2303 9.7936,4.2303 2.84519,0 5.78319,-0.23196 6.52888,-0.51548 l 1.35582,-0.51548 0,-16.88389 c 0,-9.28614 0.14437,-17.26013 0.32084,-17.71997 0.39442,-1.02786 5.98548,-1.18966 6.97334,-0.2018 0.46971,0.46971 0.63428,5.54405 0.63428,19.55686 0,21.95866 0.38124,20.49375 -5.60472,21.53615 -4.85816,0.84602 -13.69932,1.15432 -16.41326,0.57237 z m 86.50276,0.16331 c -4.81623,-0.86301 -7.86019,-2.80423 -9.65117,-6.15483 -1.16753,-2.18423 -1.18657,-2.54476 -1.33746,-25.32511 l -0.15306,-23.10934 1.43199,-0.35941 c 0.78759,-0.19767 2.28359,-0.38296 3.32445,-0.41175 l 1.89245,-0.0523 0.26429,6.34277 0.26428,6.34276 7.52559,0.14662 c 7.4056,0.14427 7.53057,0.16643 7.83759,1.38968 0.1716,0.68369 0.23396,1.92591 0.13858,2.76049 l -0.17341,1.51741 -7.66418,0.26429 -7.66417,0.26428 -0.14111,13.29502 -0.14111,13.29502 1.34768,1.60162 c 1.92857,2.29198 4.36241,2.93528 9.58608,2.53376 4.25377,-0.32697 4.39939,-0.30024 4.65129,0.85399 0.77984,3.57327 0.57697,3.96562 -2.22088,4.29515 -4.94341,0.58223 -7.8172,0.74295 -9.11772,0.50992 z m 31.44954,-0.35505 c -3.75288,-0.98037 -5.55771,-2.04672 -8.06143,-4.76294 -3.57875,-3.88248 -3.87198,-5.6681 -3.70779,-22.57816 l 0.14082,-14.50253 3.43566,0 3.43567,0 0.26428,15.06406 c 0.24279,13.83932 0.35023,15.20999 1.32141,16.85879 2.10576,3.57504 3.27407,4.01948 10.56599,4.01948 3.58833,0 6.72244,-0.19786 6.96471,-0.43968 0.24225,-0.24182 0.55939,-8.32885 0.70475,-17.97117 l 0.26428,-17.53148 3.12235,-0.161 c 2.14013,-0.11035 3.25994,0.0559 3.55971,0.52856 0.56287,0.88745 0.57551,38.52852 0.0132,39.41431 -1.17044,1.84387 -17.1362,3.33852 -22.02365,2.06176 z m -84.98832,-0.6814 c -0.2061,-0.2061 -0.37473,-9.24342 -0.37473,-20.08293 l 0,-19.7082 1.98212,-0.56539 c 3.76779,-1.07473 10.30456,-1.7163 15.40125,-1.51159 6.30944,0.25342 10.31619,1.93 12.7971,5.35479 2.86969,3.9615 3.15132,6.03703 2.99558,22.07652 l -0.14081,14.50254 -3.43567,0 -3.43566,0 -0.26428,-15.42303 c -0.25076,-14.63375 -0.32121,-15.49932 -1.37666,-16.91404 -2.09762,-2.81161 -4.19518,-3.60716 -9.4589,-3.5875 -2.61639,0.01 -5.40797,0.19188 -6.20351,0.40471 l -1.44643,0.38694 -0.13926,17.56646 -0.13926,17.56646 -3.19307,0.15449 c -1.75619,0.085 -3.3617,-0.0141 -3.56781,-0.22023 z"
         id="path4245"
         inkscape:connector-curvature="0" />
    </g>
    <g
       id="g4239"
       transform="matrix(0.19642864,0,0,0.19642864,69.889586,657.55763)">
      <path
         style="fill:#d50a52"
         d="m 32.259601,1170.6195 c -18.244455,-6.526 -27.268545,-27.6808 -26.120921,-61.2342 0.711721,-20.8089 4.358667,-32.4259 13.119859,-41.7924 8.705012,-9.3063 23.062852,-13.5714 38.138352,-11.3292 4.14746,0.6169 8.03117,1.1216 8.63045,1.1216 1.78125,0 0.49853,-25.6425 -1.51931,-30.3722 -0.90859,-2.1296 -1.65199,-4.2249 -1.65199,-4.6561 0,-0.4313 2.3625,-1.1011 5.25,-1.4885 2.8875,-0.3874 8.59197,-1.7571 12.6766,-3.0437 4.08463,-1.2866 7.84038,-2.0836 8.34612,-1.771 0.50573,0.3126 0.66751,1.9775 0.3595,3.6999 -0.30801,1.7223 -1.03217,23.3577 -1.60923,48.0785 -1.13025,48.4189 -0.32633,78.7161 2.47642,93.3284 0.873,4.5515 1.38569,8.6015 1.13931,9 -0.24637,0.3986 -5.77838,0.7247 -12.29334,0.7247 l -11.84538,0 -0.29772,-6.25 c -0.16374,-3.4375 -0.63962,-6.25 -1.0575,-6.25 -0.41788,0 -2.13938,1.9572 -3.82555,4.3494 -5.81113,8.2443 -19.11086,11.7497 -29.91567,7.8849 z m 25.53465,-20.1475 c 7.25069,-5.0861 8.06179,-9.7708 8.06179,-46.5627 l 0,-29.203 -2.75,-1.2666 c -4.17741,-1.9241 -13.43862,-2.4773 -17.73491,-1.0594 -5.73269,1.8919 -11.11037,7.3434 -13.64551,13.8327 -1.84113,4.7128 -2.2854,8.2096 -2.62643,20.6723 -0.74852,27.3542 5.05591,42.782 17.12153,45.5078 4.1227,0.9313 8.55619,0.1954 11.57353,-1.9211 z m 74.061789,20.3094 c -17.08374,-4.5731 -27.04349,-15.129 -32.157479,-34.0822 -2.77204,-10.2736 -3.08454,-35.2598 -0.56825,-45.4356 4.022099,-16.2652 10.795689,-25.8268 22.337129,-31.5309 7.33666,-3.6259 8.12457,-3.7952 17.7827,-3.8207 13.07306,-0.034 19.20857,1.9807 25.65427,8.4264 7.94712,7.9471 10.95163,18.6675 10.95163,39.0764 0,10.7097 -0.25379,12.8539 -1.58179,13.3635 -0.86998,0.3338 -13.24498,0.607 -27.5,0.607 -20.02051,0 -25.93843,0.2844 -26.00707,1.25 -0.70089,9.8594 2.53494,21.5746 7.59049,27.4808 1.95243,2.281 6.12579,5.4122 9.27412,6.9582 5.14676,2.5274 6.7331,2.8061 15.72425,2.763 8.09247,-0.039 10.93032,-0.468 14.87712,-2.25 2.68241,-1.2111 5.31675,-2.202 5.85408,-2.202 1.19449,0 -0.0314,15.9776 -1.35147,17.6138 -2.70286,3.3502 -30.49572,4.5619 -40.87973,1.7823 z m 22.69873,-77.6461 c -1.00024,-14.1499 -4.46744,-20.5436 -12.26863,-22.6241 -11.90607,-3.1751 -20.21648,5.7867 -21.98213,23.7053 l -0.70639,7.1688 17.77017,0 17.77016,0 -0.58318,-8.25 z m 39.30127,77.7467 c -3.575,-0.7234 -7.78742,-1.8139 -9.36094,-2.4234 -2.5835,-1.0007 -2.79127,-1.4217 -2.14251,-4.3408 0.39514,-1.7779 0.92697,-26.4435 1.18185,-54.8124 0.51809,-57.6663 -0.25146,-74.341 -3.76592,-81.6009 -2.53687,-5.2405 -2.17163,-5.7377 4.92943,-6.7111 2.53713,-0.3477 8.32222,-1.8402 12.85576,-3.3166 4.53355,-1.4764 8.45016,-2.4771 8.70359,-2.2236 0.25343,0.2534 0.0858,13.2793 -0.37252,28.9464 -0.45831,15.6671 -0.47717,29.128 -0.0419,29.9132 0.5855,1.0561 1.32811,0.3754 2.85448,-2.6165 5.37619,-10.5382 13.40229,-15.6518 24.65869,-15.7105 8.96319,-0.047 15.79269,2.8668 21.8173,9.3076 7.64801,8.1763 11.06958,20.8037 10.999,40.5919 -0.12906,36.178 -14.00607,59.8092 -38.42808,65.4394 -6.0874,1.4034 -26.05422,1.1426 -33.88822,-0.4427 z m 30.32078,-13.5689 c 7.94482,-2.2061 15.04177,-11.7263 17.51492,-23.4953 3.10271,-14.7648 2.26133,-34.7527 -1.93503,-45.9685 -4.80379,-12.8392 -17.94442,-16.3002 -25.783,-6.7906 -6.16165,7.4751 -8.09884,20.1412 -8.11008,53.0269 -0.007,20.0929 0.15853,22.297 1.74241,23.2196 2.30283,1.3412 11.75291,1.3458 16.57078,0.01 z m 110.42605,13.8687 c -5.31751,-1.4122 -12.99985,-8.6858 -15.86103,-15.0171 -2.12195,-4.6956 -2.3858,-6.7195 -2.3858,-18.3005 0,-12.7213 0.0763,-13.176 3.31427,-19.7532 3.80698,-7.7331 9.09686,-12.3816 18.03319,-15.8468 4.49601,-1.7434 8.6193,-2.3133 20.15254,-2.7854 l 14.5,-0.5935 -0.30329,-7.5 c -0.49879,-12.3344 -4.3501,-17.5203 -13.84676,-18.645 -7.20768,-0.8536 -18.75397,1.9141 -25.87597,6.2028 -3.17521,1.912 -6.03042,3.2191 -6.34491,2.9046 -0.69172,-0.6918 -5.08498,-12.1132 -5.80092,-15.0811 -0.44277,-1.8354 0.47011,-2.5237 6.83039,-5.1496 10.13679,-4.1851 17.49663,-5.5544 30.34146,-5.6451 18.32932,-0.1294 27.55871,3.6777 33.08168,13.6461 l 2.91832,5.2673 0.54409,44 c 0.38358,31.0203 0.89982,44.8304 1.75,46.8151 2.22628,5.197 2.05211,5.2898 -9.83045,5.2354 -8.68204,-0.04 -11.23867,-0.3705 -11.98469,-1.5505 -0.52158,-0.825 -0.95522,-4.5375 -0.96364,-8.25 -0.008,-3.7125 -0.38952,-6.75 -0.8469,-6.75 -0.45737,0 -2.24377,2.1793 -3.96977,4.843 -6.86543,10.5952 -20.381,15.4248 -33.45181,11.9535 z m 23.53529,-19.1437 c 4.94865,-2.0717 10.41433,-8.8008 12.23482,-15.0631 0.87826,-3.0211 1.68374,-9.6772 1.78995,-14.7914 l 0.19311,-9.2983 -8.61374,-0.287 c -18.92318,-0.6304 -28.39948,8.214 -26.46541,24.7006 1.5052,12.8307 10.40309,19.1174 20.86127,14.7392 z m -79.89791,18.1612 c -0.23269,-0.3773 0.0666,-2.6273 0.66517,-5 0.63219,-2.5061 1.31354,-20.0293 1.62586,-41.814 0.56514,-39.4202 -0.24952,-54.1752 -3.24344,-58.7445 -2.08054,-3.1753 -1.17737,-3.7997 6.80132,-4.7024 3.29354,-0.3726 8.75095,-1.5437 12.12757,-2.6024 3.37662,-1.0587 6.36431,-1.9309 6.63931,-1.9383 0.275,-0.01 0.35804,22.5994 0.18454,50.2371 -0.25797,41.0944 -0.0497,51.5259 1.1433,57.2504 0.80231,3.8501 1.32735,7.142 1.16674,7.3154 -0.60641,0.655 -26.7064,0.6537 -27.11037,-10e-4 z m 137.06176,0.098 c -0.20013,-0.3235 0.0981,-3.5552 0.66264,-7.1816 0.6238,-4.0069 0.90193,-23.3914 0.70895,-49.4119 -0.30832,-41.573 -0.38112,-42.956 -2.5029,-47.5493 -1.20194,-2.6021 -1.87694,-4.9188 -1.5,-5.1483 0.37694,-0.2296 4.28534,-0.9578 8.68534,-1.6183 4.4,-0.6605 9.51746,-1.8313 11.37212,-2.6017 5.86661,-2.437 6.12788,-2.177 6.12788,6.0992 0,4.125 0.25526,7.5 0.56723,7.5 0.31198,0 3.12448,-2.6622 6.25,-5.916 4.5283,-4.7141 6.78619,-6.2378 11.11427,-7.5 15.00301,-4.3754 29.92382,0.6473 34.69367,11.6787 1.64825,3.812 1.9033,8.8042 2.54099,49.7373 0.38986,25.025 0.99824,47.075 1.35195,49 l 0.64311,3.5 -12.83061,-0.1993 -12.83061,-0.1992 0.19337,-3.3008 c 0.10635,-1.8154 0.49431,-18.1507 0.86214,-36.3007 0.95782,-47.2627 -0.1445,-54.2917 -8.97821,-57.2495 -9.2793,-3.107 -17.89285,2.2982 -21.18515,13.2942 -1.53538,5.1281 -1.79063,10.192 -1.8376,36.4553 -0.03,16.775 0.17045,34.2901 0.44545,38.9223 l 0.5,8.4224 -12.34507,0.078 c -6.78979,0.043 -12.50882,-0.187 -12.70896,-0.5104 z m -133.221,-136.1855 c -3.97373,-4.0004 -7.22497,-7.9485 -7.22497,-8.7734 0,-0.825 3.6,-5.0789 8,-9.453 l 8,-7.9531 8,7.9531 c 4.4,4.3741 8,8.675 8,9.5575 0,1.9334 -14.20763,15.9425 -16.16845,15.9425 -0.75988,0 -4.63284,-3.2731 -8.60658,-7.2736 z M 239.905,991.24764 c -8.784,-1.45642 -28.37275,-8.42722 -38.95164,-13.86123 -46.48387,-23.87713 -85.28073,-70.04857 -102.514939,-122.00116 -9.01751,-27.18332 -10.901,-43.69688 -10.26511,-90 0.49863,-36.30925 0.16165,-34.19855 9.19162,-57.57259 5.963699,-15.43701 8.858999,-20.81837 11.961279,-22.23187 1.77709,-0.80969 3.56476,-3.24035 5.47829,-7.44872 6.46815,-14.22521 8.2808,-17.59146 13.29444,-24.68906 5.99399,-8.48541 30.89588,-32.32547 32.94422,-31.53945 0.72659,0.27882 4.36063,-1.70901 8.07564,-4.4174 12.80748,-9.33713 48.91571,-26.15417 55.60734,-25.89854 1.99645,0.0763 6.2174,-0.22502 9.3799,-0.66953 4.82374,-0.67801 5.75,-0.56434 5.75,0.70565 0,1.1125 1.45404,1.63443 5.4845,1.96867 3.31871,0.27521 6.26115,1.15767 7.45121,2.23466 1.80218,1.63095 2.67095,1.67508 10.38478,0.52745 4.62994,-0.68882 9.68307,-1.01058 11.22919,-0.71502 1.54611,0.29556 3.60345,0.0426 4.57187,-0.56223 2.25446,-1.40793 22.96391,4.8151 33.23169,9.98587 6.66324,3.35555 7.33738,3.49237 14.09015,2.85958 8.04652,-0.75402 11.5366,0.1881 13.36705,3.60833 1.87972,3.51229 7.24161,6.79687 10.18956,6.24191 1.92723,-0.36281 4.48038,1.02511 11.14388,6.05791 16.42532,12.40572 32.16892,31.40107 40.26297,48.57906 3.35603,7.12253 3.49363,7.83972 2.91555,15.19648 -0.33369,4.24664 -1.0013,7.47729 -1.48357,7.17923 -0.48228,-0.29806 -2.00088,-2.76008 -3.37469,-5.47116 -2.24603,-4.43233 -2.83662,-4.92923 -5.85854,-4.92923 -4.82422,0 -6.20426,2.05847 -4.71424,7.03173 0.65391,2.18255 1.81372,3.96827 2.57735,3.96827 2.59528,0 4.31032,2.91036 5.42865,9.21219 0.61372,3.4583 1.40376,7.35154 1.75565,8.65166 0.55977,2.06816 0.3713,2.27864 -1.5066,1.68262 -2.61231,-0.82912 -2.7117,0.2574 -0.4789,5.23565 1.02998,2.29645 1.69904,6.52326 1.75,11.05563 0.0716,6.36484 0.38322,7.58135 2.35061,9.17497 l 2.26812,1.83721 -2.51812,7.50135 c -1.38497,4.12575 -2.51812,8.18715 -2.51812,9.02535 0,0.83819 -0.58966,1.88385 -1.31036,2.32368 -2.54046,1.55041 -4.68983,5.78488 -4.70646,9.2722 -0.0152,3.18385 -1.57562,7.48687 -9.07589,25.02749 -2.93809,6.8712 -2.71566,6.59163 -4.12396,5.18333 -0.65083,-0.65083 -1.49158,-1.18333 -1.86832,-1.18333 -1.54648,0 -4.37659,5.79498 -4.87816,9.98859 -0.41367,3.45868 -0.99576,4.5759 -2.53685,4.86908 -1.1,0.20926 -4.97318,3.18326 -8.60706,6.60888 -19.0109,17.92136 -39.35183,26.9701 -63.46634,28.23323 -11.5343,0.60418 -27.10678,-1.26438 -35.64599,-4.27718 -8.45118,-2.98176 -9.13264,-1.00469 -1.419,4.11688 6.23901,4.14247 19.85725,7.42591 30.88839,7.44738 7.66496,0.0149 9.0088,1.55187 2.24389,2.56633 -14.31211,2.14623 -42.34275,-7.29919 -57.03528,-19.21905 -8.12555,-6.59215 -17.46102,-15.98103 -17.44754,-17.54737 0.006,-0.70772 2.99727,2.00771 6.64706,6.0343 4.57324,5.04536 6.87612,6.93253 7.4085,6.07112 0.56223,-0.90971 2.91976,0.15976 8.6609,3.92893 7.824,5.1366 12.7986,6.71352 11.63805,3.68919 -0.3144,-0.81933 -3.56278,-3.8309 -7.21861,-6.69238 -21.13234,-16.54066 -31.89362,-31.66529 -35.59367,-50.02577 -1.68614,-8.36702 -1.97662,-21.91729 -0.6065,-28.29216 1.67902,-7.81209 9.74255,-25.43551 13.68587,-29.91143 2.12703,-2.41432 5.3236,-6.43224 7.10349,-8.92872 1.77989,-2.49647 6.11005,-6.58981 9.62258,-9.0963 16.82237,-12.0042 38.08091,-13.88402 56.14126,-4.96439 7.47041,3.68947 14.40449,8.82968 13.34304,9.89113 -0.35429,0.3543 -2.9303,-0.51429 -5.72445,-1.9302 -10.59645,-5.36962 -25.93755,-7.01955 -37.65849,-4.05015 -21.14608,5.35717 -36.38499,19.4328 -43.53832,40.21476 -2.43443,7.07253 -3.62883,19.48857 -2.17035,22.56119 0.57803,1.21776 1.73492,5.93288 2.57086,10.47804 2.93243,15.9442 13.05964,32.12056 26.33153,42.05979 18.70846,14.01062 36.07224,17.49405 58.34618,11.70509 11.66612,-3.032 12.98442,-3.59534 17.97784,-7.6823 1.91282,-1.56558 4.62473,-2.84651 6.02648,-2.84651 2.68595,0 11.26007,-6.33836 21.99937,-16.2629 5.67188,-5.24156 5.99631,-5.7926 5.99631,-10.18469 0,-4.67057 1.70507,-7.37024 6.34895,-10.05241 0.95227,-0.55 2.97655,-4.61129 4.49841,-9.02508 2.73201,-7.92353 2.76513,-8.31584 2.61712,-31 -0.2004,-30.71541 -2.16584,-41.57132 -10.7413,-59.3283 -5.27504,-10.92289 -13.80595,-22.75088 -23.45092,-32.5144 -14.19315,-14.36758 -26.53822,-21.454 -45.97254,-26.38953 -10.26081,-2.60583 -11.89753,-2.73676 -32.79972,-2.62389 -24.93775,0.13467 -31.31882,1.20345 -40.5,6.78345 -3.025,1.83849 -7.74241,4.32119 -10.48314,5.51712 -3.50815,1.53081 -4.58653,2.41954 -3.64323,3.00253 1.92585,1.19024 0.37032,1.841 -7.34781,3.07397 -7.63146,1.21914 -8.99241,1.80133 -15.84931,6.78007 -3.95839,2.87415 -4.72043,3.91293 -4.24884,5.79188 0.51515,2.05253 0.0183,2.45133 -4.79879,3.85169 -10.46171,3.0413 -25.99745,15.79542 -40.70761,33.41904 -7.29121,8.7353 -7.99575,9.95088 -7.45086,12.85542 0.49453,2.63606 -0.5738,5.53745 -5.99338,16.27701 l -6.59518,13.06914 -2.06704,17.22994 c -2.83789,23.65541 -3.03893,49.49785 -0.43354,55.72994 1.0347,2.475 2.16893,7.875 2.52051,12 0.35159,4.125 1.22716,8.54766 1.94574,9.82814 0.71857,1.28048 1.05701,2.97828 0.75208,3.77289 -0.70569,1.83901 2.8565,11.43779 5.48453,14.77879 1.10139,1.4002 3.44553,2.81946 5.2092,3.15392 4.49929,0.85324 6.16627,2.32653 10.18665,9.00304 4.03984,6.7088 4.68307,10.15603 1.58576,8.4984 -4.38661,-2.34764 -4.12421,-0.28669 1.07977,8.48069 2.63748,4.44348 4.08247,8.04125 3.97223,9.89012 -0.10659,1.78755 0.6582,3.79106 1.98713,5.20564 1.18823,1.26481 2.27996,3.38869 2.42608,4.71973 0.14611,1.33104 0.82578,3.4885 1.51039,4.79435 2.65851,5.07102 13.0296,18.69075 15.43037,20.2638 1.39056,0.91113 2.52829,2.24662 2.52829,2.96776 0,1.45473 7.61356,12.71892 9.37986,13.87742 0.61608,0.40408 2.03895,0.74158 3.16193,0.75 1.12299,0.008 4.04799,2.06762 6.5,4.57599 2.45202,2.50837 5.95497,5.49125 7.78434,6.62861 2.69994,1.67861 3.21332,2.51739 2.72694,4.4553 -0.47761,1.90292 -0.0976,2.57808 1.87264,3.32716 1.35951,0.51689 4.98689,2.6097 8.06085,4.65069 3.63957,2.41654 6.70942,3.69452 8.80122,3.66395 2.57195,-0.0376 4.40816,1.09061 9.21222,5.66016 3.3,3.1389 7.17285,6.42804 8.60634,7.3092 3.87212,2.38016 13.46045,5.32424 21.91728,6.72965 4.11201,0.68337 8.15138,1.62752 8.97638,2.09813 1.98728,1.13361 -16.828,0.95989 -23.95104,-0.22114 z M 210.10604,821.47087 c -4.39322,-6.05343 -5.15151,-8.09418 -3,-8.07375 0.6875,0.007 2.825,2.81902 4.75,6.25 4.34946,7.75214 4.34612,7.74441 3.33333,7.70898 -0.45833,-0.016 -2.74583,-2.66439 -5.08333,-5.88523 z m 72.5,-17.2479 c -4.71113,-1.72065 -3.03812,-2.83772 4.25,-2.83772 3.85,0 7,0.36 7,0.8 0,2.99088 -5.77582,4.03706 -11.25,2.03772 z m 32.25,-14.73073 c 0,-0.49116 0.7118,-1.16616 1.58179,-1.5 2.25844,-0.86665 2.42333,-0.78392 1.77984,0.89301 -0.61536,1.6036 -3.36163,2.09948 -3.36163,0.60699 z m 12.42491,-34.55015 c -0.64732,-2.57912 0.0619,-4.55684 1.63411,-4.55684 0.51754,0 0.94098,1.575 0.94098,3.5 0,4.01046 -1.66253,4.69277 -2.57509,1.05684 z M 84.871351,711.63525 c 0.008,-0.4125 0.45153,-1.425 0.98469,-2.25 0.78387,-1.21296 0.9723,-1.06944 0.98469,0.75 0.008,1.2375 -0.43469,2.25 -0.98469,2.25 -0.55,0 -0.99311,-0.3375 -0.98469,-0.75 z m 10.74608,-30.82194 c -0.88196,-0.88196 0.72553,-5.75703 2.04313,-6.19623 1.65898,-0.553 1.53433,4.24206 -0.14653,5.63705 -0.7381,0.61257 -1.59157,0.8642 -1.8966,0.55918 z"
         id="path4232"
         inkscape:connector-curvature="0" />
      <path
         style="fill:#0d0d0d"
         d="m 138.67622,1171.3227 c -28.57491,-3.9057 -42.212319,-25.1052 -40.486929,-62.9374 0.31354,-6.875 1.28417,-15.2 2.156959,-18.5 3.96268,-14.9828 11.53834,-25.2799 22.31329,-30.329 5.14323,-2.4101 6.81998,-2.6695 17.26394,-2.6702 10.89145,-8e-4 11.91162,0.1751 17.45704,3.0095 10.87741,5.5599 15.92254,15.3829 17.71385,34.4897 0.68614,7.3186 0.7447,13.3179 0.16105,16.5 l -0.91711,5 -26.99113,0.5 -26.99114,0.5 0.13672,7.5 c 0.26831,14.7188 7.82071,26.6661 19.25824,30.4651 7.51752,2.4969 20.98989,2.3304 28.03487,-0.3465 2.95954,-1.1245 5.68235,-1.8583 6.0507,-1.6307 1.20936,0.7474 -1.08113,14.9635 -2.60239,16.1519 -2.78579,2.1763 -23.00599,3.6032 -32.55796,2.2976 z m 16.88975,-70.6239 c 1.10067,-2.8683 -1.41893,-18.8228 -3.66916,-23.2336 -2.75109,-5.3926 -7.17599,-8.0714 -13.34043,-8.0762 -7.51539,-0.01 -13.05509,3.7934 -16.0534,11.0099 -1.74904,4.2097 -4.02344,18.5628 -3.25768,20.5584 0.44602,1.1623 3.81554,1.428 18.11074,1.428 15.5519,0 17.63687,-0.1931 18.20993,-1.6865 z m 46.51669,70.6659 c -4.55036,-0.4681 -10.62536,-1.5347 -13.5,-2.3701 l -5.22662,-1.5191 0.30756,-62.7951 c 0.31169,-63.6363 -0.091,-72.9565 -3.37031,-78.01 -2.25237,-3.4709 -1.79479,-4.0487 3.81275,-4.8142 2.8875,-0.3941 8.4,-1.7832 12.25,-3.0868 3.85,-1.3036 7.5352,-2.3733 8.18933,-2.3772 0.90623,0 1.04719,7.253 0.59219,30.4931 -0.35401,18.0816 -0.22681,30.5 0.31239,30.5 0.50024,0 2.03375,-2.1375 3.40781,-4.75 7.15568,-13.6052 19.54465,-18.9497 33.98568,-14.6611 7.86702,2.3362 15.93927,10.6595 18.83337,19.419 7.08028,21.4296 4.88625,50.8495 -5.28978,70.9309 -5.23082,10.3225 -16.37325,19.1637 -27.53099,21.8451 -6.89765,1.6575 -17.62542,2.1366 -26.77338,1.1955 z m 21.32226,-13.0961 c 9.59153,-2.4151 17.00248,-12.7631 19.50681,-27.2375 1.68675,-9.749 0.7411,-34.5518 -1.57813,-41.3918 -3.63412,-10.7178 -11.5557,-16.4518 -19.64336,-14.2187 -12.24658,3.3814 -15.64408,13.7025 -16.44734,49.9647 -0.59865,27.0253 -0.0432,32.086 3.63396,33.1101 3.88551,1.0822 9.68955,0.9916 14.52806,-0.2268 z m -190.184169,12.0869 c -12.333197,-3.8077 -21.26082,-16.6191 -24.95286,-35.8082 -1.868935,-9.7136 -1.817192,-33.566 0.092546,-42.662 3.310439,-15.7676 12.353145,-27.921 24.293974,-32.6511 4.86076,-1.9256 7.39765,-2.2377 17.20163,-2.1164 6.325,0.078 12.85,0.2829 14.5,0.4549 l 3,0.3126 -0.22459,-13 c -0.15568,-9.0113 -0.71523,-14.2968 -1.82366,-17.2264 -0.87949,-2.3244 -1.35412,-4.6226 -1.05473,-5.107 0.29939,-0.4845 2.92004,-1.1267 5.82366,-1.4272 2.90363,-0.3005 8.14434,-1.5123 11.64604,-2.6929 3.5017,-1.1805 6.51757,-1.9956 6.70193,-1.8112 0.18437,0.1843 -0.13275,9.0943 -0.7047,19.7999 -0.59042,11.0514 -0.83472,40.4283 -0.56518,67.9648 0.46666,47.6751 0.58041,49.561 3.86048,64 0.28524,1.2556 -1.57348,1.5458 -11.40925,1.7817 l -11.75,0.2817 -0.0153,-5.7817 c -0.0135,-5.0817 -1.2306,-9.6025 -2.22191,-8.2528 -0.19028,0.2591 -1.55468,2.3587 -3.03198,4.6658 -4.01143,6.2646 -10.32244,9.5484 -19.08651,9.9313 -3.92936,0.1717 -8.55517,-0.1234 -10.27958,-0.6558 z m 26.25743,-20.0331 c 1.45724,-1.3404 3.58971,-4.4621 4.73882,-6.9371 1.94347,-4.186 2.11532,-6.6141 2.46233,-34.7908 0.20517,-16.66 0.0993,-31.3814 -0.2352,-32.7143 -0.47052,-1.8747 -1.77927,-2.7712 -5.77967,-3.9592 -9.85955,-2.928 -17.21146,-1.4111 -23.40678,4.8294 -6.26598,6.3116 -8.55503,13.4749 -9.15036,28.6349 -0.94746,24.1268 4.00757,40.8138 13.68406,46.0837 5.1095,2.7827 14.04494,2.2034 17.6868,-1.1466 z m 273.877859,19.6326 c -2.27227,-0.8308 -5.97621,-3.5934 -8.57528,-6.3958 -6.0671,-6.542 -8.37857,-13.6405 -8.36012,-25.6739 0.0169,-10.9872 2.10776,-18.4737 6.91958,-24.7755 6.91073,-9.0507 23.56876,-14.426 42.00819,-13.5554 l 7.00763,0.3309 0.31841,-5.5 c 0.76447,-13.2048 -2.85333,-19.984 -11.67424,-21.8757 -7.33953,-1.5741 -17.22805,0.1772 -26.14417,4.63 -4.125,2.0601 -7.77342,3.8743 -8.1076,4.0315 -0.33417,0.1572 -1.83286,-3.1655 -3.33041,-7.3839 -3.18233,-8.9641 -3.151,-9.0294 5.93801,-12.3718 22.68685,-8.3429 50.28033,-5.934 58.43946,5.1018 5.01973,6.7896 5.25274,8.8882 5.1484,46.3681 -0.087,31.2655 0.60102,46.1292 2.53608,54.785 l 0.62263,2.7851 -10.87329,-0.2851 -10.87328,-0.285 -0.5,-8.4209 c -0.275,-4.6314 -0.95,-8.535 -1.5,-8.6746 -0.55,-0.1396 -2.8,2.4739 -5,5.8077 -5.5796,8.4553 -11.95241,12.0073 -22.38578,12.4771 -4.98419,0.2245 -8.99586,-0.1623 -11.61422,-1.1196 z m 22.82078,-16.6419 c 5.23754,-1.4544 11.01263,-6.9508 13.58435,-12.929 2.67832,-6.2259 4.77238,-25.4776 3.00315,-27.6094 -0.79092,-0.953 -3.39218,-1.3818 -8.28072,-1.365 -19.50036,0.067 -27.62756,6.6762 -27.62756,22.4678 0,11.1761 3.33485,17.3706 10.4687,19.4456 4.12985,1.2013 4.49145,1.2009 8.85208,-0.01 z m -76.88503,14.1375 c 2.98233,-12.7874 3.0263,-90.9467 0.0558,-99.2488 -0.84945,-2.3741 -1.64506,-4.7528 -1.76801,-5.286 -0.12296,-0.5332 3.15144,-1.5363 7.27644,-2.2292 4.125,-0.6929 9.60955,-1.9441 12.1879,-2.7806 2.57834,-0.8364 4.82834,-1.5209 5,-1.521 0.17165,-2e-4 0.1582,21.17 -0.0299,47.0448 -0.22307,30.6857 0.0401,49.7246 0.7569,54.7503 0.6044,4.2378 1.20829,8.5598 1.342,9.6043 0.22683,1.772 -0.61531,1.9102 -12.58818,2.0653 l -12.83128,0.1662 0.5983,-2.5653 z m 137.01229,-0.3653 c 0.36321,-1.76 0.90787,-20.3 1.21035,-41.2001 0.57156,-39.4914 -0.24211,-55.8605 -3.04622,-61.283 -1.48668,-2.8749 -1.45889,-3.0244 0.66834,-3.5946 1.22072,-0.3273 3.36245,-0.6012 4.75939,-0.6087 2.19662,-0.012 6.85257,-1.0803 15.7101,-3.6055 2.18686,-0.6234 2.25043,-0.4347 2.26531,6.7252 0.0191,9.1742 1.05193,11.28 3.55531,7.2485 2.97414,-4.7895 7.70208,-9.4342 11.92938,-11.7195 3.34017,-1.8057 5.64958,-2.1624 14,-2.1624 8.81032,0 10.53075,0.2975 14.4613,2.5 4.9173,2.7556 8.48263,7.3382 10.02267,12.8824 0.58449,2.1042 1.01854,18.6779 1.03755,39.6176 0.0277,30.4775 0.54106,43.4765 2.21174,55.9995 0.25387,1.9029 -0.31234,1.9994 -11.73326,2 l -12,5e-4 0.3297,-40.9756 c 0.18134,-22.5366 0.037,-42.9277 -0.32078,-45.3135 -0.39851,-2.6574 -1.73414,-5.5505 -3.44783,-7.4685 -2.47497,-2.77 -3.53278,-3.1761 -9.17921,-3.5242 -5.44821,-0.3358 -6.89045,-0.048 -9.85808,1.968 -9.43999,6.4127 -10.30672,11.5996 -9.86543,59.0398 l 0.34163,36.726 -11.85617,-0.026 -11.85617,-0.026 0.66038,-3.2001 z"
         id="path4230"
         inkscape:connector-curvature="0" />
    </g>
    <image
       sodipodi:absref="/home/user1/Irudiak/logos/vlc.png"
       y="789.02484"
       x="757.15161"
       id="image4431"
       xlink:href="file:///home/user1/Irudiak/logos/vlc.png"
       preserveAspectRatio="none"
       height="100.44633"
       width="100.44633" />
    <image
       sodipodi:absref="/home/user1/Irudiak/logos/libre.png"
       y="896.7854"
       x="15.411758"
       id="image4442"
       xlink:href="file:///home/user1/Irudiak/logos/libre.png"
       preserveAspectRatio="none"
       height="159.87898"
       width="159.87898" />
    <image
       sodipodi:absref="/home/user1/Irudiak/logos/inkscape.png"
       y="790.76178"
       x="528.41174"
       id="image4453"
       xlink:href="file:///home/user1/Irudiak/logos/inkscape.png"
       preserveAspectRatio="none"
       height="90.603806"
       width="90.603806" />
    <image
       sodipodi:absref="/home/user1/Irudiak/logos/gimp.png"
       y="911.30664"
       x="505.36597"
       id="image4464"
       xlink:href="file:///home/user1/Irudiak/logos/gimp.png"
       preserveAspectRatio="none"
       height="115.548"
       width="115.548" />
    <image
       sodipodi:absref="/home/user1/Irudiak/logos/firefox.png"
       y="919.3111"
       x="730.39697"
       id="image4475"
       xlink:href="file:///home/user1/Irudiak/logos/firefox.png"
       preserveAspectRatio="none"
       height="133.30431"
       width="138.94141" />
    <image
       sodipodi:absref="/home/user1/Irudiak/logos/apache.png"
       y="933.3103"
       x="241.38985"
       id="image4486"
       xlink:href="file:///home/user1/Irudiak/logos/apache.png"
       preserveAspectRatio="none"
       height="94.518005"
       width="170.1324" />
  </g>
</svg>
